<mxfile host="app.diagrams.net" modified="2022-09-21T13:18:12.190Z" agent="5.0 (Windows NT 10.0; Win64; x64) AppleWebKit/537.36 (KHTML, like Gecko) Chrome/105.0.0.0 Safari/537.36" etag="sIzrKzVG3GVWKJ8SMk7W" version="20.3.3" type="github">
  <diagram id="wHqU7xgthoA4xyokHWvZ" name="Trang-1">
    <mxGraphModel dx="1038" dy="481" grid="1" gridSize="10" guides="1" tooltips="1" connect="1" arrows="1" fold="1" page="1" pageScale="1" pageWidth="827" pageHeight="1169" math="0" shadow="0">
      <root>
        <mxCell id="0" />
        <mxCell id="1" parent="0" />
        <mxCell id="oTQfq-08RJL-lzbBRmqH-9" value="" style="edgeStyle=orthogonalEdgeStyle;rounded=0;orthogonalLoop=1;jettySize=auto;html=1;" edge="1" parent="1" source="oTQfq-08RJL-lzbBRmqH-1" target="oTQfq-08RJL-lzbBRmqH-2">
          <mxGeometry relative="1" as="geometry" />
        </mxCell>
        <mxCell id="oTQfq-08RJL-lzbBRmqH-1" value="Start" style="ellipse;whiteSpace=wrap;html=1;" vertex="1" parent="1">
          <mxGeometry x="340" y="30" width="120" height="80" as="geometry" />
        </mxCell>
        <mxCell id="oTQfq-08RJL-lzbBRmqH-10" value="" style="edgeStyle=orthogonalEdgeStyle;rounded=0;orthogonalLoop=1;jettySize=auto;html=1;" edge="1" parent="1" source="oTQfq-08RJL-lzbBRmqH-2" target="oTQfq-08RJL-lzbBRmqH-4">
          <mxGeometry relative="1" as="geometry" />
        </mxCell>
        <mxCell id="oTQfq-08RJL-lzbBRmqH-2" value="String search" style="shape=parallelogram;perimeter=parallelogramPerimeter;whiteSpace=wrap;html=1;fixedSize=1;" vertex="1" parent="1">
          <mxGeometry x="310" y="170" width="180" height="70" as="geometry" />
        </mxCell>
        <mxCell id="oTQfq-08RJL-lzbBRmqH-11" value="" style="edgeStyle=orthogonalEdgeStyle;rounded=0;orthogonalLoop=1;jettySize=auto;html=1;" edge="1" parent="1" source="oTQfq-08RJL-lzbBRmqH-4" target="oTQfq-08RJL-lzbBRmqH-5">
          <mxGeometry relative="1" as="geometry" />
        </mxCell>
        <mxCell id="oTQfq-08RJL-lzbBRmqH-4" value="&lt;span style=&quot;text-align: left;&quot;&gt;&amp;nbsp; &amp;nbsp; &amp;nbsp; &amp;nbsp; &amp;nbsp; &amp;nbsp;pst=con.PS(&quot;delete from&lt;/span&gt;&lt;br style=&quot;text-align: left;&quot;&gt;&lt;span style=&quot;text-align: left;&quot;&gt;&amp;nbsp; &amp;nbsp; &amp;nbsp; &amp;nbsp; myphone2&amp;nbsp; id=?&quot;)&lt;/span&gt;&lt;br style=&quot;text-align: left;&quot;&gt;&lt;span style=&quot;text-align: left;&quot;&gt;&amp;nbsp; &amp;nbsp; &amp;nbsp; &amp;nbsp; &amp;nbsp;&amp;nbsp;&lt;/span&gt;&lt;br style=&quot;text-align: left;&quot;&gt;&lt;span style=&quot;text-align: left;&quot;&gt;&amp;nbsp; &amp;nbsp; &amp;nbsp; &amp;nbsp; &amp;nbsp; &amp;nbsp; ResultSet rs=pst.Executequery()&lt;/span&gt;" style="rounded=0;whiteSpace=wrap;html=1;" vertex="1" parent="1">
          <mxGeometry x="260" y="279" width="280" height="150" as="geometry" />
        </mxCell>
        <mxCell id="oTQfq-08RJL-lzbBRmqH-12" value="" style="edgeStyle=orthogonalEdgeStyle;rounded=0;orthogonalLoop=1;jettySize=auto;html=1;" edge="1" parent="1" source="oTQfq-08RJL-lzbBRmqH-5" target="oTQfq-08RJL-lzbBRmqH-8">
          <mxGeometry relative="1" as="geometry" />
        </mxCell>
        <mxCell id="oTQfq-08RJL-lzbBRmqH-13" value="" style="edgeStyle=orthogonalEdgeStyle;rounded=0;orthogonalLoop=1;jettySize=auto;html=1;" edge="1" parent="1" source="oTQfq-08RJL-lzbBRmqH-5" target="oTQfq-08RJL-lzbBRmqH-7">
          <mxGeometry relative="1" as="geometry" />
        </mxCell>
        <mxCell id="oTQfq-08RJL-lzbBRmqH-5" value="&lt;b&gt;rs&lt;/b&gt;" style="rhombus;whiteSpace=wrap;html=1;" vertex="1" parent="1">
          <mxGeometry x="320" y="500" width="160" height="100" as="geometry" />
        </mxCell>
        <mxCell id="oTQfq-08RJL-lzbBRmqH-7" value="Column&quot;id&quot; deleted&lt;br&gt;print&quot;Record Deleteeeee!!!!!&quot;" style="shape=document;whiteSpace=wrap;html=1;boundedLbl=1;" vertex="1" parent="1">
          <mxGeometry x="580" y="490" width="180" height="120" as="geometry" />
        </mxCell>
        <mxCell id="oTQfq-08RJL-lzbBRmqH-8" value="No Result" style="shape=document;whiteSpace=wrap;html=1;boundedLbl=1;" vertex="1" parent="1">
          <mxGeometry x="80" y="510" width="120" height="80" as="geometry" />
        </mxCell>
        <mxCell id="oTQfq-08RJL-lzbBRmqH-14" value="true" style="text;html=1;strokeColor=none;fillColor=none;align=center;verticalAlign=middle;whiteSpace=wrap;rounded=0;" vertex="1" parent="1">
          <mxGeometry x="500" y="520" width="60" height="30" as="geometry" />
        </mxCell>
        <mxCell id="oTQfq-08RJL-lzbBRmqH-15" value="false" style="text;html=1;strokeColor=none;fillColor=none;align=center;verticalAlign=middle;whiteSpace=wrap;rounded=0;" vertex="1" parent="1">
          <mxGeometry x="240" y="520" width="60" height="30" as="geometry" />
        </mxCell>
        <mxCell id="oTQfq-08RJL-lzbBRmqH-16" value="" style="endArrow=classic;html=1;rounded=0;exitX=0.5;exitY=0;exitDx=0;exitDy=0;entryX=0;entryY=0.5;entryDx=0;entryDy=0;" edge="1" parent="1" source="oTQfq-08RJL-lzbBRmqH-8" target="oTQfq-08RJL-lzbBRmqH-1">
          <mxGeometry width="50" height="50" relative="1" as="geometry">
            <mxPoint x="140" y="500" as="sourcePoint" />
            <mxPoint x="140" y="60" as="targetPoint" />
            <Array as="points">
              <mxPoint x="140" y="70" />
            </Array>
          </mxGeometry>
        </mxCell>
      </root>
    </mxGraphModel>
  </diagram>
</mxfile>
